<?xml version="1.0" encoding="utf-8"?>
<!-- Generator: Adobe Illustrator 16.0.0, SVG Export Plug-In . SVG Version: 6.00 Build 0)  -->
<!DOCTYPE svg PUBLIC "-//W3C//DTD SVG 1.1//EN" "http://www.w3.org/Graphics/SVG/1.1/DTD/svg11.dtd">
<svg version="1.1" id="Capa_1" xmlns="http://www.w3.org/2000/svg" xmlns:xlink="http://www.w3.org/1999/xlink" x="0px" y="0px"
	 width="4163.168px" height="815.837px" viewBox="105.952 2202.817 4163.168 815.837"
	 enable-background="new 105.952 2202.817 4163.168 815.837" xml:space="preserve">
<g id="XMLID_793_">
	<path id="XMLID_1205_" fill="#00AECF" d="M1226.146,2748.768c0,4.619,0,9.238,0,13.857c0,4.62,0,4.62,0,9.239s0,4.619-4.619,4.619
		h-4.62h-157.06c-4.62,0-9.239,0-13.859-4.619c-4.619-4.619-4.619-9.239-4.619-18.478v-309.501v-4.619l4.619-4.62
		c4.62,0,4.62,0,9.239,0c4.62,0,9.239,0,18.478,0c4.619,0,13.858,0,18.479,0c4.619,0,9.238,0,9.238,0c4.619,0,4.619,0,4.619,4.62
		v4.619v272.546h106.247h4.619l4.62,4.619c0,0,0,4.619,0,9.238C1226.146,2739.528,1226.146,2744.148,1226.146,2748.768"/>
	<path id="XMLID_1202_" fill="#00AECF" d="M1554.125,2600.945c0,27.717-4.619,55.434-9.239,73.911
		c-9.239,23.097-18.478,41.575-32.336,55.433c-13.858,13.858-32.336,27.717-50.813,36.956
		c-18.478,9.238-46.194,13.858-69.291,13.858c-27.717,0-50.814-4.62-69.291-9.239c-18.479-9.239-36.956-18.478-50.814-32.336
		c-13.857-13.858-23.097-32.336-27.717-55.433c-4.619-23.098-9.238-46.195-9.238-78.531c0-27.716,4.619-50.813,9.238-73.91
		c9.239-23.097,18.479-41.574,32.336-55.433c13.859-13.858,32.336-27.717,50.814-36.956c18.478-9.238,46.193-13.857,69.291-13.857
		c27.717,0,46.194,4.619,69.291,9.238c18.479,4.619,36.955,18.478,50.813,32.336s23.098,32.336,27.717,55.434
		C1554.125,2550.133,1554.125,2573.229,1554.125,2600.945 M1484.834,2605.565c0-18.478,0-32.336-4.62-50.813
		c-4.619-13.858-9.239-27.717-13.858-36.955c-4.619-9.239-13.857-18.479-27.717-23.098c-9.238-4.619-23.097-9.238-41.574-9.238
		s-32.336,4.619-41.574,9.238c-9.239,4.619-18.479,13.858-27.717,27.717c-9.239,9.238-13.858,23.097-13.858,36.955
		c-4.619,13.858-4.619,27.717-4.619,46.194s0,36.955,4.619,50.813c4.62,13.858,9.239,27.717,13.858,36.955
		c4.619,9.239,13.857,18.479,27.717,23.098c9.238,4.619,23.097,9.238,41.574,9.238s32.336-4.619,41.574-9.238
		c9.239-4.619,18.479-13.858,27.717-27.717c9.239-9.239,13.858-23.098,13.858-36.955
		C1480.214,2637.901,1484.834,2624.043,1484.834,2605.565"/>
	<path id="XMLID_1199_" fill="#00AECF" d="M2177.746,2753.387c0,4.619,4.619,9.238,4.619,13.858c0,4.619,0,4.619,0,9.239
		c0,0-4.619,4.619-9.238,4.619s-13.858,0-18.479,0c-9.238,0-13.857,0-23.097,0c-4.619,0-9.239,0-9.239,0
		c-4.619,0-4.619,0-4.619-4.619c0,0,0-4.62-4.619-4.62l-23.098-69.291h-129.344l-23.097,64.672c0,4.619,0,4.619-4.619,4.619
		l-4.619,4.62c-4.62,0-4.62,0-9.239,0s-9.238,0-18.478,0s-13.858,0-18.478,0s-9.239,0-9.239-4.62c0,0-4.619-4.619,0-9.239
		c0-4.619,0-9.238,4.62-13.857l106.246-300.263c0-4.619,4.619-4.619,4.619-9.238l4.619-4.62c4.619,0,9.239,0,13.858,0
		c4.62,0,13.858,0,23.097,0c9.239,0,18.479,0,23.098,0s9.238,0,13.858,0c4.619,0,4.619,4.62,9.238,4.62c0,0,4.62,4.619,4.62,9.238
		L2177.746,2753.387z M2020.685,2503.938L2020.685,2503.938l-46.193,143.202h97.008L2020.685,2503.938z"/>
	<path id="XMLID_1198_" fill="#00AECF" d="M2408.717,2748.768c0,4.619,0,9.238,0,13.857c0,4.62,0,4.62,0,9.239s0,4.619-4.619,4.619
		h-4.619h-157.061c-4.619,0-9.238,0-13.858-4.619c-4.619-4.619-4.619-9.239-4.619-18.478v-309.501v-4.619l4.619-4.62
		c4.62,0,4.62,0,9.239,0s9.238,0,18.478,0c4.619,0,13.858,0,18.478,0s9.239,0,9.239,0c4.619,0,4.619,0,4.619,4.62v4.619v272.546
		h106.247h4.619l4.619,4.619c0,0,0,4.619,0,9.238C2408.717,2739.528,2408.717,2744.148,2408.717,2748.768"/>
	<path id="XMLID_1197_" fill="#00AECF" d="M2630.449,2466.982c0,4.62,0,9.239,0,13.858c0,4.62,0,4.62,0,9.239
		c0,0,0,4.619-4.619,4.619h-4.619h-83.15v272.546v4.619l-4.619,4.619c-4.619,0-4.619,0-9.238,0s-9.239,0-18.479,0
		c-4.619,0-13.857,0-18.478,0c-4.619,0-9.239,0-9.239,0c-4.619,0-4.619,0-4.619-4.619v-4.619v-272.546h-83.149h-4.619
		c0,0,0-4.619-4.619-4.619c0,0,0-4.619,0-9.239c0-4.619,0-9.238,0-13.858c0-4.619,0-9.238,0-13.857c0-4.62,0-4.62,0-9.239
		c0,0,0-4.619,4.619-4.619h4.619h240.21h4.619l4.619,4.619c0,0,0,4.619,0,9.239
		C2630.449,2457.744,2630.449,2462.363,2630.449,2466.982"/>
	<path id="XMLID_1194_" fill="#00AECF" d="M2907.614,2753.387c0,4.619,4.619,9.238,4.619,13.858c0,4.619,0,4.619,0,9.239
		c0,0-4.619,4.619-9.239,4.619c-4.619,0-13.857,0-18.478,0c-9.238,0-13.858,0-23.097,0c-4.619,0-9.239,0-9.239,0
		c-4.619,0-4.619,0-4.619-4.619c0,0,0-4.62-4.619-4.62l-23.097-69.291h-129.344l-23.098,64.672c0,4.619,0,4.619-4.619,4.619
		l-4.619,4.62c-4.619,0-4.619,0-9.239,0c-4.619,0-9.239,0-18.478,0c-9.239,0-13.858,0-18.478,0c-4.62,0-9.239,0-9.239-4.62
		c0,0-4.619-4.619,0-9.239c0-4.619,0-9.238,4.619-13.857l106.247-300.263c0-4.619,0-4.619,4.619-9.238l4.619-4.62
		c4.62,0,9.239,0,13.858,0s13.858,0,23.098,0c9.238,0,18.478,0,23.097,0s9.239,0,13.858,0s4.619,4.62,9.238,4.62
		c0,0,4.619,4.619,4.619,9.238L2907.614,2753.387z M2750.553,2503.938L2750.553,2503.938l-46.194,143.202h97.008L2750.553,2503.938z
		"/>
	<path id="XMLID_1191_" fill="#00AECF" d="M3189.398,2540.894c0,18.478-4.619,36.955-9.238,50.813s-13.858,27.717-27.717,36.955
		c-9.238,9.239-23.097,18.478-41.574,23.098c-18.479,4.619-36.956,9.238-60.053,9.238h-27.717v106.247v4.619l-4.619,4.619
		c-4.619,0-4.619,0-9.238,0c-4.62,0-9.239,0-18.479,0c-4.619,0-13.858,0-18.478,0s-9.239,0-9.239,0c-4.619,0-4.619,0-4.619-4.619
		v-4.619v-304.882c0-9.239,0-13.858,4.619-18.478c4.62-4.619,9.239-4.619,18.479-4.619h78.529c9.239,0,13.859,0,23.098,0
		s13.858,0,27.717,4.619c9.238,0,18.478,4.619,32.335,9.238c9.239,4.62,18.478,13.858,27.717,18.479
		c9.239,9.238,13.858,18.478,18.478,27.716C3184.779,2513.177,3189.398,2527.035,3189.398,2540.894 M3115.488,2545.513
		c0-13.858,0-23.097-4.619-27.716c-4.62-9.239-9.239-13.858-13.859-18.479c-4.619-4.619-13.857-4.619-18.478-9.238
		c-4.619,0-13.858,0-23.097,0h-27.717v115.485h32.336c9.238,0,18.478,0,27.717-4.619c9.238-4.62,13.858-9.239,18.478-13.858
		s9.238-13.858,9.238-18.478C3115.488,2563.99,3115.488,2554.752,3115.488,2545.513"/>
	<path id="XMLID_1190_" fill="#00AECF" d="M3309.504,2767.245v4.619l-4.62,4.619c-4.619,0-4.619,0-9.238,0s-9.239,0-18.478,0
		c-4.619,0-13.858,0-18.479,0c-4.619,0-9.238,0-9.238,0c-4.619,0-4.619,0-4.619-4.619v-4.619v-318.74v-4.619l4.619-4.619
		c4.619,0,4.619,0,9.238,0c4.62,0,9.239,0,18.479,0c4.619,0,13.858,0,18.478,0s9.238,0,9.238,0c4.62,0,4.62,0,4.62,4.619v4.619
		V2767.245z"/>
	<path id="XMLID_1182_" fill="#00AECF" d="M3688.296,2600.945c0,27.717-4.619,55.434-9.239,73.911
		c-9.238,23.097-18.478,41.575-32.335,55.433c-13.858,13.858-32.336,27.717-50.813,36.956
		c-18.479,9.238-46.194,13.858-69.291,13.858c-27.717,0-50.814-4.62-69.292-9.239c-18.478-9.239-36.955-18.478-50.813-32.336
		s-23.097-32.336-27.717-55.433c-4.619-23.098-9.238-46.195-9.238-78.531c0-27.716,4.619-50.813,9.238-73.91
		c9.239-23.097,18.479-41.574,32.336-55.433c13.858-13.858,32.336-27.717,50.813-36.956c18.478-9.238,46.194-13.857,69.292-13.857
		c27.716,0,46.193,4.619,69.291,9.238c18.478,4.619,36.955,18.478,50.813,32.336s23.097,32.336,27.716,55.434
		C3688.296,2550.133,3688.296,2573.229,3688.296,2600.945 M3619.005,2605.565c0-18.478,0-32.336-4.62-50.813
		c-4.619-13.858-9.238-27.717-13.857-36.955c-4.62-9.239-13.859-18.479-27.717-23.098c-9.238-4.619-23.098-9.238-41.575-9.238
		s-32.335,4.619-41.575,9.238c-9.238,4.619-18.477,13.858-27.716,27.717c-9.239,9.238-13.858,23.097-13.858,36.955
		c-4.619,13.858-4.619,27.717-4.619,46.194s0,36.955,4.619,50.813s9.238,27.717,13.858,36.955
		c4.619,9.239,13.858,18.479,27.716,23.098c9.239,4.619,23.098,9.238,41.575,9.238s32.336-4.619,41.575-9.238
		c9.238-4.619,18.478-13.858,27.717-27.717c9.238-9.239,13.857-23.098,13.857-36.955
		C3614.385,2637.901,3619.005,2624.043,3619.005,2605.565"/>
	<path id="XMLID_1181_" fill="#00AECF" d="M3933.125,2748.768c0,4.619,0,9.238,0,13.857c0,4.62,0,4.62,0,9.239s0,4.619-4.619,4.619
		h-4.62h-157.06c-4.619,0-9.239,0-13.858-4.619c-4.62-4.619-4.62-9.239-4.62-18.478v-309.501v-4.619l4.62-4.62
		c4.619,0,4.619,0,9.238,0s9.239,0,18.478,0c4.619,0,13.858,0,18.479,0c4.619,0,9.238,0,9.238,0c4.619,0,4.619,0,4.619,4.62v4.619
		v272.546h106.247h4.619l4.619,4.619c0,0,0,4.619,0,9.238C3933.125,2739.528,3933.125,2744.148,3933.125,2748.768"/>
	<path id="XMLID_796_" fill="#00AECF" d="M4251.865,2753.387c0,4.619,4.619,9.238,4.619,13.858c0,4.619,0,4.619,0,9.239
		c0,0-4.619,4.619-9.239,4.619c-4.619,0-13.858,0-18.478,0c-9.238,0-13.858,0-23.098,0c-4.619,0-9.238,0-9.238,0
		c-4.619,0-4.619,0-4.619-4.619c0,0,0-4.62-4.619-4.62l-23.098-69.291h-129.344l-23.097,64.672c0,4.619,0,4.619-4.62,4.619
		l-4.619,4.62c-4.619,0-4.619,0-9.238,0s-9.238,0-18.478,0s-13.858,0-18.478,0c-4.62,0-9.239,0-9.239-4.62c0,0-4.619-4.619,0-9.239
		c0-4.619,0-9.238,4.619-13.857l106.247-300.263c0-4.619,0-4.619,4.619-9.238l4.619-4.62c4.62,0,9.239,0,13.859,0
		c4.619,0,13.857,0,23.097,0c9.239,0,18.478,0,23.097,0s9.238,0,13.858,0s4.62,4.62,9.239,4.62c0,0,4.619,4.619,4.619,9.238
		L4251.865,2753.387z M4099.424,2503.938L4099.424,2503.938l-46.195,143.202h97.008L4099.424,2503.938z"/>
	<path id="XMLID_795_" fill="#00AECF" d="M163.679,2739.528c-69.291-69.291-69.291-175.538,0-244.829l230.971-230.971
		c50.814-50.813,133.964-64.672,194.016-32.336l0,0l0,0l-226.352,226.352l0,0c-23.097,23.097-23.097,60.053,0,78.53
		c23.098,23.097,60.053,23.097,78.531,0l41.574-41.575c23.098-23.097,46.194-23.097,64.672-4.619l87.769,87.769
		c23.098,23.098,27.717,41.575,0,69.292l-83.149,87.769c-23.097,23.097-46.193,23.097-69.291,0l-157.061-157.061
		c-23.097-23.097-60.052-23.097-78.53,0c-23.097,23.097-23.097,60.053,0,78.53l203.255,203.254
		c41.574,41.575,101.627,41.575,143.202,0l170.919-170.918c41.574-41.575,41.574-101.627,0-143.202l-129.344-129.344
		c-18.479-18.478-18.479-41.574,0-64.672l41.574-41.574l4.619-4.62l161.68,161.68c83.149,83.15,83.149,217.113,0,300.263
		l-175.537,175.538c-83.15,83.149-217.113,83.149-300.263,0L163.679,2739.528z"/>
	<path id="XMLID_794_" fill="#00AECF" d="M1849.767,2725.67c0,4.619,0,9.239,0,9.239c0,4.619,0,4.619,0,9.239v4.619
		c0,0,0,4.619-4.619,4.619c0,0-4.619,4.619-9.239,9.238c-4.619,4.62-13.858,4.62-18.478,9.239
		c-9.238,4.619-18.478,4.619-27.717,9.239c-9.238,0-23.097,4.619-32.336,4.619c-23.097,0-46.193-4.619-64.672-9.239
		c-18.478-9.238-32.336-18.478-46.193-32.336c-13.859-13.858-23.098-32.336-32.336-55.433c-9.239-23.098-9.239-46.194-9.239-73.911
		c0-27.716,4.619-55.433,9.239-78.53c9.238-23.097,18.477-41.574,32.336-55.433c13.857-13.858,32.336-27.717,50.813-32.336
		c18.479-9.239,41.575-13.858,64.672-13.858c9.239,0,18.479,0,27.717,4.619c9.239,0,18.479,4.62,23.098,4.62
		c9.238,4.619,13.857,4.619,18.478,9.238c4.619,4.62,9.239,4.619,13.858,9.239c4.619,4.619,4.619,4.619,4.619,4.619v4.619
		c0,4.619,0,4.619,0,9.239c0,4.619,0,9.239,0,13.858s0,9.238,0,13.857c0,4.62,0,4.62,0,9.239c0,0,0,4.619-4.619,4.619h-4.619
		c-4.62,0-4.62,0-9.239-4.619c-4.62-4.619-9.239-4.619-13.858-9.239c-4.619-4.619-13.858-9.238-23.098-9.238
		c-9.238-4.619-18.478-4.619-32.336-4.619c-13.857,0-27.716,4.619-36.955,9.238c-9.238,4.62-18.478,13.858-27.717,23.098
		c-9.238,9.238-13.857,23.097-18.477,36.955c-4.62,13.858-4.62,32.336-4.62,50.813s0,36.955,4.62,50.813
		c4.619,13.858,9.238,27.717,18.477,36.955c9.239,9.239,18.479,18.479,27.717,23.098c9.239,4.619,23.098,9.238,36.955,9.238
		c13.858,0,23.098,0,32.336-4.619c9.239-4.619,18.479-4.619,23.098-9.238c4.619-4.62,13.858-4.62,13.858-9.239
		c4.619-4.619,9.239-4.619,9.239-4.619h4.619c0,0,0,0,4.619,4.619c0,0,0,4.619,0,9.239
		C1849.767,2716.432,1849.767,2721.051,1849.767,2725.67"/>
</g>
</svg>
